<svg width="27" height="25" viewBox="0 0 27 25" fill="none" xmlns="http://www.w3.org/2000/svg">
<path d="M0.79405 20.8133L0.794059 20.8133L11.4883 1.68382C11.4883 1.6838 11.4883 1.68378 11.4883 1.68376C11.6891 1.3248 11.9819 1.02587 12.3367 0.817791C12.6915 0.6097 13.0953 0.5 13.5066 0.5C13.9179 0.5 14.3218 0.6097 14.6766 0.817791C15.0314 1.02588 15.3242 1.32483 15.525 1.68382L26.2124 20.8132L26.2125 20.8133C26.4092 21.1652 26.5105 21.5625 26.5064 21.9657C26.5022 22.3689 26.3927 22.764 26.1887 23.1118C25.9847 23.4596 25.6933 23.748 25.3434 23.9484C24.9935 24.1488 24.5973 24.2543 24.1941 24.2543H2.81055C2.40749 24.2539 2.01152 24.1483 1.6619 23.9477C1.31227 23.7472 1.02114 23.4587 0.81735 23.111C0.613563 22.7632 0.504206 22.3683 0.500119 21.9652C0.496032 21.5622 0.597357 21.1651 0.79405 20.8133ZM15.0512 20.1136C15.4614 19.7033 15.6919 19.1469 15.6919 18.5668C15.6919 17.9866 15.4614 17.4302 15.0512 17.02C14.6409 16.6098 14.0845 16.3793 13.5044 16.3793C12.9242 16.3793 12.3678 16.6098 11.9576 17.02C11.5473 17.4302 11.3169 17.9866 11.3169 18.5668C11.3169 19.1469 11.5473 19.7033 11.9576 20.1136C12.3678 20.5238 12.9242 20.7543 13.5044 20.7543C14.0845 20.7543 14.6409 20.5238 15.0512 20.1136ZM11.8794 7.87928V13.5043C11.8794 13.9353 12.0506 14.3486 12.3553 14.6533C12.6601 14.9581 13.0734 15.1293 13.5044 15.1293C13.9354 15.1293 14.3487 14.9581 14.6534 14.6533C14.9582 14.3486 15.1294 13.9353 15.1294 13.5043V7.87928C15.1294 7.4483 14.9582 7.03498 14.6534 6.73023C14.3487 6.42549 13.9354 6.25428 13.5044 6.25428C13.0734 6.25428 12.6601 6.42549 12.3553 6.73023C12.0506 7.03498 11.8794 7.4483 11.8794 7.87928Z" fill="#FF0004" stroke="#FF0004"/>
</svg>
