<svg width="27" height="25" viewBox="0 0 27 25" fill="none" xmlns="http://www.w3.org/2000/svg">
<path d="M15.9614 1.43978C15.7172 1.00317 15.361 0.639585 14.9295 0.386502C14.4981 0.133419 14.0069 0 13.5066 0C13.0064 0 12.5152 0.133419 12.0837 0.386502C11.6522 0.639585 11.296 1.00317 11.0519 1.43978L0.357628 20.5693C0.118408 20.9972 -0.00482608 21.4801 0.000144631 21.9703C0.00511534 22.4605 0.138118 22.9408 0.385966 23.3638C0.633814 23.7867 0.9879 24.1375 1.41312 24.3814C1.83834 24.6253 2.31992 24.7539 2.81013 24.7543H24.1941C24.6845 24.7543 25.1664 24.626 25.5919 24.3823C26.0175 24.1385 26.3719 23.7878 26.62 23.3648C26.8681 22.9418 27.0013 22.4612 27.0064 21.9709C27.0114 21.4805 26.8882 20.9973 26.6489 20.5693L15.9614 1.43978ZM15.1919 18.5668C15.1919 19.0143 15.0141 19.4436 14.6976 19.76C14.3812 20.0765 13.9519 20.2543 13.5044 20.2543C13.0568 20.2543 12.6276 20.0765 12.3111 19.76C11.9947 19.4436 11.8169 19.0143 11.8169 18.5668C11.8169 18.1192 11.9947 17.69 12.3111 17.3735C12.6276 17.0571 13.0568 16.8793 13.5044 16.8793C13.9519 16.8793 14.3812 17.0571 14.6976 17.3735C15.0141 17.69 15.1919 18.1192 15.1919 18.5668ZM12.3794 13.5043V7.87928C12.3794 7.58091 12.4979 7.29476 12.7089 7.08379C12.9199 6.87281 13.206 6.75428 13.5044 6.75428C13.8027 6.75428 14.0889 6.87281 14.2999 7.08379C14.5109 7.29476 14.6294 7.58091 14.6294 7.87928V13.5043C14.6294 13.8026 14.5109 14.0888 14.2999 14.2998C14.0889 14.5108 13.8027 14.6293 13.5044 14.6293C13.206 14.6293 12.9199 14.5108 12.7089 14.2998C12.4979 14.0888 12.3794 13.8026 12.3794 13.5043Z" fill="#FFFF0E"/>
<path d="M0.79405 20.8133L0.794059 20.8133L11.4883 1.68382C11.4883 1.6838 11.4883 1.68378 11.4883 1.68376C11.6891 1.3248 11.9819 1.02587 12.3367 0.817791C12.6915 0.6097 13.0953 0.5 13.5066 0.5C13.9179 0.5 14.3218 0.6097 14.6766 0.817791C15.0314 1.02588 15.3242 1.32483 15.525 1.68382L26.2124 20.8132L26.2125 20.8133C26.4092 21.1652 26.5105 21.5625 26.5064 21.9657C26.5022 22.3689 26.3927 22.764 26.1887 23.1118C25.9847 23.4596 25.6933 23.748 25.3434 23.9484C24.9935 24.1488 24.5973 24.2543 24.1941 24.2543H2.81055C2.40749 24.2539 2.01152 24.1483 1.6619 23.9477C1.31227 23.7472 1.02114 23.4587 0.81735 23.111C0.613563 22.7632 0.504206 22.3683 0.500119 21.9652C0.496032 21.5622 0.597357 21.1651 0.79405 20.8133ZM15.0512 20.1136C15.4614 19.7033 15.6919 19.1469 15.6919 18.5668C15.6919 17.9866 15.4614 17.4302 15.0512 17.02C14.6409 16.6098 14.0845 16.3793 13.5044 16.3793C12.9242 16.3793 12.3678 16.6098 11.9576 17.02C11.5473 17.4302 11.3169 17.9866 11.3169 18.5668C11.3169 19.1469 11.5473 19.7033 11.9576 20.1136C12.3678 20.5238 12.9242 20.7543 13.5044 20.7543C14.0845 20.7543 14.6409 20.5238 15.0512 20.1136ZM11.8794 7.87928V13.5043C11.8794 13.9353 12.0506 14.3486 12.3553 14.6533C12.6601 14.9581 13.0734 15.1293 13.5044 15.1293C13.9354 15.1293 14.3487 14.9581 14.6534 14.6533C14.9582 14.3486 15.1294 13.9353 15.1294 13.5043V7.87928C15.1294 7.4483 14.9582 7.03498 14.6534 6.73023C14.3487 6.42549 13.9354 6.25428 13.5044 6.25428C13.0734 6.25428 12.6601 6.42549 12.3553 6.73023C12.0506 7.03498 11.8794 7.4483 11.8794 7.87928Z" stroke="#FC7900" stroke-opacity="0.87"/>
</svg>
