<svg width="36" height="32" viewBox="0 0 36 32" fill="none" xmlns="http://www.w3.org/2000/svg">
<g id="carbon:report">
<path id="Vector" d="M11.0679 18H19.8509V20H11.0679V18ZM11.0679 13H24.2423V15H11.0679V13ZM11.0679 23H16.5572V25H11.0679V23Z" fill="#9D9797"/>
<path id="Vector_2" d="M27.5361 5H24.2424V4C24.2424 3.46957 24.0111 2.96086 23.5993 2.58579C23.1875 2.21071 22.629 2 22.0467 2H13.2637C12.6814 2 12.1229 2.21071 11.7111 2.58579C11.2993 2.96086 11.068 3.46957 11.068 4V5H7.77436C7.19201 5 6.63351 5.21071 6.22173 5.58579C5.80995 5.96086 5.57861 6.46957 5.57861 7V28C5.57861 28.5304 5.80995 29.0391 6.22173 29.4142C6.63351 29.7893 7.19201 30 7.77436 30H27.5361C28.1184 30 28.6769 29.7893 29.0887 29.4142C29.5005 29.0391 29.7318 28.5304 29.7318 28V7C29.7318 6.46957 29.5005 5.96086 29.0887 5.58579C28.6769 5.21071 28.1184 5 27.5361 5ZM13.2637 4H22.0467V8H13.2637V4ZM27.5361 28H7.77436V7H11.068V10H24.2424V7H27.5361V28Z" fill="#9D9797"/>
</g>
</svg>
