<svg width="34" height="28" viewBox="0 0 34 28" fill="none" xmlns="http://www.w3.org/2000/svg">
<g id="settings solid 1" clip-path="url(#clip0_469_616)">
<path id="Vector" d="M30.1861 10.2977H29.4846C29.2568 9.7075 28.9693 9.13418 28.6249 8.58335L29.1216 8.17219C30.3261 7.17634 30.2939 5.58041 29.122 4.61153L27.6564 3.39856C26.4866 2.42899 24.558 2.40089 23.3544 3.39819L22.8573 3.80967C22.1918 3.52466 21.499 3.28666 20.786 3.09807V2.51743C20.786 1.12933 19.4216 0 17.7444 0H15.6708C13.9937 0 12.6292 1.12933 12.6292 2.51743V3.09807C11.9162 3.28661 11.2235 3.52461 10.5579 3.80967L10.0612 3.39856C8.86011 2.40324 6.93158 2.42658 5.7593 3.39824L4.29359 4.61126C3.12221 5.57972 3.08833 7.17575 4.2932 8.17193L4.79035 8.58341C4.44595 9.13424 4.15846 9.7075 3.9306 10.2977H3.22914C1.55202 10.2977 0.1875 11.427 0.1875 12.8151V14.5314C0.1875 15.9196 1.55202 17.0489 3.22914 17.0489H3.9306C4.15846 17.6391 4.44595 18.2124 4.79035 18.7632L4.29359 19.1744C3.0891 20.1702 3.12137 21.7662 4.2932 22.735L5.75878 23.948C6.92867 24.9176 8.85727 24.9457 10.0608 23.9484L10.5579 23.5369C11.2235 23.8219 11.9162 24.0599 12.6292 24.2485V24.8291C12.6292 26.2173 13.9937 27.3466 15.6708 27.3466H17.7444C19.4216 27.3466 20.7861 26.2173 20.7861 24.8291V24.2485C21.4991 24.06 22.1918 23.822 22.8574 23.5369L23.3541 23.948C24.5552 24.9433 26.4837 24.92 27.656 23.9483L29.1217 22.7353C30.2931 21.7668 30.327 20.1708 29.1221 19.1746L28.6249 18.7631C28.9693 18.2123 29.2568 17.639 29.4847 17.0488H30.1862C31.8633 17.0488 33.2278 15.9194 33.2278 14.5313V12.815C33.2277 11.427 31.8632 10.2977 30.1861 10.2977ZM16.7076 19.6233C12.7436 19.6233 9.51878 16.9541 9.51878 13.6733C9.51878 10.3924 12.7436 7.72327 16.7076 7.72327C20.6716 7.72327 23.8964 10.3924 23.8964 13.6733C23.8964 16.9541 20.6716 19.6233 16.7076 19.6233Z" fill="#752DC1"/>
</g>
<defs>
<clipPath id="clip0_469_616">
<rect width="33.0402" height="27.3466" fill="white" transform="translate(0.1875)"/>
</clipPath>
</defs>
</svg>
