<svg width="14" height="20" viewBox="0 0 14 20" fill="none" xmlns="http://www.w3.org/2000/svg">
<path d="M7.56832 7.00302L7.26958 7.7H8.02788H12.6035H12.6035C12.624 7.7 12.6439 7.70626 12.6607 7.71795C12.6775 7.72963 12.6903 7.74618 12.6973 7.76536C12.7044 7.78453 12.7055 7.80542 12.7003 7.8252C12.6951 7.84499 12.6841 7.86271 12.6685 7.876L12.6685 7.87604L6.71887 12.9652L6.70956 12.9732L6.70064 12.9816L0.671935 18.6731C0.671904 18.6732 0.671873 18.6732 0.671843 18.6732C0.641995 18.7014 0.622346 18.7038 0.611992 18.7043C0.595955 18.7049 0.571883 18.6999 0.547069 18.6829C0.52225 18.666 0.508741 18.6455 0.503499 18.6303C0.500112 18.6205 0.495276 18.6014 0.510533 18.5635L0.510649 18.5632L4.03625 9.78637L4.31196 9.1H3.57228H0.603483H0.603036C0.586481 9.10001 0.570179 9.09592 0.555595 9.08808C0.541015 9.08024 0.528607 9.0689 0.519487 9.05508C0.510367 9.04126 0.504821 9.0254 0.503346 9.00891C0.501872 8.99241 0.504515 8.97582 0.511037 8.9606L0.511055 8.96056L4.11104 0.5606C4.11104 0.560587 4.11105 0.560573 4.11105 0.56056C4.11877 0.542578 4.1316 0.527254 4.14794 0.516489C4.1643 0.505716 4.18345 0.499983 4.20304 0.5H4.20348L10.2035 0.5L10.2039 0.5C10.2205 0.499985 10.2368 0.504081 10.2514 0.511922C10.266 0.519762 10.2784 0.5311 10.2875 0.544919C10.2966 0.558737 10.3021 0.574604 10.3036 0.59109L10.8016 0.546559L10.3036 0.591094C10.3051 0.607583 10.3025 0.624182 10.2959 0.6394L10.2959 0.63942L7.56832 7.00302Z" fill="#17D951" stroke="#0EA53B"/>
</svg>
