<svg width="37" height="35" viewBox="0 0 37 35" fill="none" xmlns="http://www.w3.org/2000/svg">
<path d="M4.5 9.375V29.375C4.50247 30.203 4.83251 30.9965 5.41802 31.582C6.00354 32.1675 6.79696 32.4975 7.625 32.5H28.875C29.703 32.4975 30.4965 32.1675 31.082 31.582C31.6675 30.9965 31.9975 30.203 32 29.375V9.375" stroke="white" stroke-width="4" stroke-linecap="round" stroke-linejoin="round"/>
<path d="M32.3125 2.5H4.1875C2.97938 2.5 2 3.47938 2 4.6875V6.5625C2 7.77062 2.97938 8.75 4.1875 8.75H32.3125C33.5206 8.75 34.5 7.77062 34.5 6.5625V4.6875C34.5 3.47938 33.5206 2.5 32.3125 2.5Z" stroke="white" stroke-width="4" stroke-linejoin="round"/>
<path d="M23.25 21.25L18.25 26.25L13.25 21.25M18.25 24.5227V15" stroke="white" stroke-width="4" stroke-linecap="round" stroke-linejoin="round"/>
</svg>
