<svg width="37" height="36" viewBox="0 0 37 36" fill="none" xmlns="http://www.w3.org/2000/svg">
<g id="fluent:warning-16-filled">
<path id="Vector" d="M6.12291 25.309L6.12292 25.309L16.8171 6.17955C16.8171 6.17953 16.8172 6.17951 16.8172 6.17949C17.0179 5.82053 17.3108 5.5216 17.6655 5.31352C18.0203 5.10543 18.4242 4.99573 18.8355 4.99573C19.2468 4.99573 19.6507 5.10543 20.0054 5.31352C20.3602 5.52158 20.653 5.82046 20.8537 6.17938C20.8538 6.17943 20.8538 6.17949 20.8538 6.17955L31.5412 25.3089L31.5413 25.309C31.7381 25.661 31.8394 26.0582 31.8352 26.4614C31.8311 26.8646 31.7215 27.2597 31.5175 27.6075C31.3135 27.9553 31.0221 28.2437 30.6723 28.4441C30.3224 28.6445 29.9262 28.75 29.523 28.75H8.13941C7.73635 28.7497 7.34038 28.644 6.99076 28.4434C6.64113 28.2429 6.34999 27.9545 6.14621 27.6067C5.94242 27.259 5.83306 26.864 5.82898 26.461C5.82489 26.0579 5.92621 25.6608 6.12291 25.309ZM20.38 24.6093C20.7903 24.1991 21.0207 23.6427 21.0207 23.0625C21.0207 22.4823 20.7903 21.9259 20.38 21.5157C19.9698 21.1055 19.4134 20.875 18.8332 20.875C18.2531 20.875 17.6967 21.1055 17.2864 21.5157C16.8762 21.9259 16.6457 22.4823 16.6457 23.0625C16.6457 23.6427 16.8762 24.1991 17.2864 24.6093C17.6967 25.0195 18.2531 25.25 18.8332 25.25C19.4134 25.25 19.9698 25.0195 20.38 24.6093ZM17.2082 12.375V18C17.2082 18.431 17.3794 18.8443 17.6842 19.1491C17.9889 19.4538 18.4023 19.625 18.8332 19.625C19.2642 19.625 19.6775 19.4538 19.9823 19.1491C20.287 18.8443 20.4582 18.431 20.4582 18V12.375C20.4582 11.944 20.287 11.5307 19.9823 11.226C19.6775 10.9212 19.2642 10.75 18.8332 10.75C18.4023 10.75 17.9889 10.9212 17.6842 11.226C17.3794 11.5307 17.2082 11.944 17.2082 12.375Z" fill="#FF0004" stroke="#FF0004"/>
</g>
</svg>
