<svg width="30" height="24" viewBox="0 0 30 24" fill="none" xmlns="http://www.w3.org/2000/svg">
<g id="Group">
<path id="Vector" d="M13.453 1.34173C14.6725 1.01473 15.9213 1.72273 16.243 2.92348C16.5648 4.12423 15.8373 5.36098 14.6178 5.68798C13.3983 6.01498 1.19727 6.74998 1.19727 6.74998C1.19727 6.74998 12.2343 1.66798 13.453 1.34173ZM13.4965 22.8352C14.7153 23.1615 15.9648 22.4535 16.2865 21.2527C16.6083 20.052 15.88 18.8152 14.6605 18.4882C13.4418 18.1612 1.24077 17.253 1.24077 17.253C1.24077 17.253 12.2778 22.5082 13.4965 22.8352Z" stroke="#752DC1" stroke-width="2" stroke-linejoin="round"/>
<path id="Vector_2" d="M21.6665 6.00293C22.05 5.49156 22.5579 5.08672 23.1419 4.82684C23.7259 4.56696 24.3666 4.46068 25.0033 4.51808C25.6399 4.57549 26.2513 4.79468 26.7794 5.15483C27.3075 5.51498 27.7347 6.00415 28.0206 6.57588C28.3065 7.14761 28.4414 7.78292 28.4127 8.42149C28.384 9.06005 28.1925 9.68068 27.8564 10.2244C27.5204 10.7682 27.0509 11.217 26.4926 11.5283C25.9343 11.8395 25.3057 12.0029 24.6665 12.0029H8.1665" stroke="#752DC1" stroke-width="2" stroke-linecap="round"/>
</g>
</svg>
