<svg width="22" height="32" viewBox="0 0 22 32" fill="none" xmlns="http://www.w3.org/2000/svg">
<g id="Group">
<path id="Vector" opacity="0.2" d="M14.1029 13.9999H20.9663C21.1502 13.9999 21.3298 14.0563 21.4808 14.1615C21.6317 14.2666 21.7469 14.4156 21.8106 14.5881C21.8743 14.7607 21.8836 14.9487 21.8373 15.1268C21.7909 15.3048 21.6911 15.4644 21.5513 15.5839L12.6269 23.2177L3.58366 31.7551C2.88166 32.4175 1.77106 31.6597 2.13106 30.7651L7.41946 17.5999H2.96626C2.81725 17.6001 2.67054 17.5632 2.5393 17.4927C2.40805 17.4221 2.29638 17.3201 2.2143 17.1957C2.13222 17.0713 2.08231 16.9285 2.06904 16.7801C2.05576 16.6317 2.07955 16.4823 2.13826 16.3454L7.53826 3.74535C7.6077 3.58335 7.72319 3.44531 7.87038 3.34835C8.01758 3.2514 8.19 3.19979 8.36626 3.19995H17.3663C17.5153 3.19982 17.662 3.23669 17.7932 3.30724C17.9245 3.3778 18.0361 3.47984 18.1182 3.60421C18.2003 3.72857 18.2502 3.87137 18.2635 4.01979C18.2768 4.16821 18.253 4.3176 18.1943 4.45455L14.1029 13.9999Z" fill="#752DC1"/>
<path id="Vector_2" fill-rule="evenodd" clip-rule="evenodd" d="M19.1665 11.3H12.3031L16.3945 1.7546C16.4532 1.61764 16.4769 1.46825 16.4637 1.31984C16.4504 1.17142 16.4005 1.02862 16.3184 0.904257C16.2363 0.779891 16.1247 0.67785 15.9934 0.607293C15.8622 0.536735 15.7155 0.499868 15.5665 0.5H6.56645C6.3902 0.499844 6.21777 0.551445 6.07058 0.648401C5.92338 0.745357 5.8079 0.8834 5.73845 1.0454L0.338454 13.6454C0.279745 13.7824 0.255959 13.9317 0.269231 14.0802C0.282503 14.2286 0.332417 14.3714 0.414495 14.4957C0.496573 14.6201 0.608245 14.7221 0.73949 14.7927C0.870735 14.8633 1.01745 14.9001 1.16645 14.9H5.61965L0.331254 28.0652C-0.0287462 28.9598 1.08185 29.7176 1.78385 29.0552L10.8271 20.5178L19.7515 12.884C19.8913 12.7644 19.9911 12.6049 20.0375 12.4268C20.0838 12.2488 20.0745 12.0608 20.0108 11.8882C19.947 11.7156 19.8319 11.5667 19.681 11.4615C19.53 11.3564 19.3504 11.3 19.1665 11.3ZM10.9387 13.1H16.7293L9.62285 19.1804L3.52985 24.9314L7.78685 14.3348C7.84158 14.1982 7.862 14.0504 7.84632 13.9041C7.83064 13.7578 7.77935 13.6176 7.69693 13.4958C7.61451 13.3739 7.50348 13.2741 7.37355 13.2051C7.24362 13.1361 7.09876 13.1 6.95165 13.1H2.53085L7.16045 2.3H14.2021L10.1107 11.8454C10.0519 11.9824 10.0282 12.1317 10.0414 12.2802C10.0547 12.4286 10.1046 12.5714 10.1867 12.6957C10.2688 12.8201 10.3804 12.9221 10.5117 12.9927C10.6429 13.0633 10.7896 13.1001 10.9387 13.1Z" fill="#752DC1"/>
</g>
</svg>
