<svg width="34" height="28" viewBox="0 0 34 28" fill="none" xmlns="http://www.w3.org/2000/svg">
<g clip-path="url(#clip0_465_522)">
<path d="M32.3003 12.4901C32.2995 12.4895 32.2988 12.4889 32.298 12.4883L18.8202 1.33345C18.2458 0.857752 17.482 0.595703 16.6695 0.595703C15.8571 0.595703 15.0933 0.857544 14.5185 1.33324L1.0478 12.4824C1.04327 12.4862 1.03873 12.4901 1.03419 12.4939C-0.14553 13.476 -0.143513 15.0693 1.03999 16.0489C1.58069 16.4966 2.29483 16.756 3.05837 16.7831C3.08937 16.7856 3.12063 16.7868 3.15214 16.7868H3.68932V24.9961C3.68932 26.6206 5.28622 27.9423 7.2494 27.9423H12.5223C13.0567 27.9423 13.4903 27.5836 13.4903 27.1411V20.7051C13.4903 19.9638 14.2188 19.3608 15.1145 19.3608H18.2246C19.1202 19.3608 19.8487 19.9638 19.8487 20.7051V27.1411C19.8487 27.5836 20.282 27.9423 20.8167 27.9423H26.0896C28.0528 27.9423 29.6497 26.6206 29.6497 24.9961V16.7868H30.1478C30.96 16.7868 31.7238 16.525 32.2988 16.0493C33.4836 15.0681 33.4841 13.472 32.3003 12.4901Z" fill="#9D9797"/>
</g>
<defs>
<clipPath id="clip0_465_522">
<rect width="33.0402" height="27.3466" fill="white" transform="translate(0.151367 0.595703)"/>
</clipPath>
</defs>
</svg>

<svg width="31" height="28" viewBox="0 0 31 28" fill="none" xmlns="http://www.w3.org/2000/svg">
<g id="home 2" clip-path="url(#clip0_452_1006)">
<path id="Vector" d="M29.3542 12.4901C29.3535 12.4895 29.3528 12.4889 29.3521 12.4883L17.0758 1.33345C16.5526 0.857752 15.8569 0.595703 15.1168 0.595703C14.3768 0.595703 13.6811 0.857544 13.1576 1.33324L0.887766 12.4824C0.883633 12.4862 0.8795 12.4901 0.875367 12.4939C-0.199184 13.476 -0.197347 15.0693 0.880648 16.0489C1.37315 16.4966 2.02362 16.756 2.7191 16.7831C2.74734 16.7856 2.77581 16.7868 2.80451 16.7868H3.2938V24.9961C3.2938 26.6206 4.74834 27.9423 6.53651 27.9423H11.3394C11.8261 27.9423 12.2211 27.5836 12.2211 27.1411V20.7051C12.2211 19.9638 12.8846 19.3608 13.7004 19.3608H16.5333C17.3491 19.3608 18.0126 19.9638 18.0126 20.7051V27.1411C18.0126 27.5836 18.4073 27.9423 18.8943 27.9423H23.6972C25.4853 27.9423 26.9399 26.6206 26.9399 24.9961V16.7868H27.3936C28.1334 16.7868 28.8291 16.525 29.3528 16.0493C30.432 15.0681 30.4324 13.472 29.3542 12.4901Z" fill="#9D9797"/>
</g>
<defs>
<clipPath id="clip0_452_1006">
<rect width="30.0948" height="27.3466" fill="white" transform="translate(0.0712891 0.595703)"/>
</clipPath>
</defs>
</svg>
