<svg width="34" height="28" viewBox="0 0 34 28" fill="none" xmlns="http://www.w3.org/2000/svg">
<g id="home 2" clip-path="url(#clip0_494_633)">
<path id="Vector" d="M32.2998 12.4901C32.2991 12.4895 32.2983 12.4889 32.2975 12.4883L18.8197 1.33345C18.2453 0.857752 17.4815 0.595703 16.669 0.595703C15.8566 0.595703 15.0928 0.857544 14.5181 1.33324L1.04731 12.4824C1.04278 12.4862 1.03824 12.4901 1.0337 12.4939C-0.146018 13.476 -0.144001 15.0693 1.0395 16.0489C1.5802 16.4966 2.29434 16.756 3.05788 16.7831C3.08889 16.7856 3.12014 16.7868 3.15165 16.7868H3.68883V24.9961C3.68883 26.6206 5.28574 27.9423 7.24891 27.9423H12.5219C13.0563 27.9423 13.4898 27.5836 13.4898 27.1411V20.7051C13.4898 19.9638 14.2183 19.3608 15.114 19.3608H18.2241C19.1197 19.3608 19.8482 19.9638 19.8482 20.7051V27.1411C19.8482 27.5836 20.2815 27.9423 20.8162 27.9423H26.0891C28.0523 27.9423 29.6492 26.6206 29.6492 24.9961V16.7868H30.1473C30.9595 16.7868 31.7233 16.525 32.2983 16.0493C33.4831 15.0681 33.4836 13.472 32.2998 12.4901Z" fill="#9D9797"/>
</g>
<defs>
<clipPath id="clip0_494_633">
<rect width="33.0402" height="27.3466" fill="white" transform="translate(0.151367 0.595703)"/>
</clipPath>
</defs>
</svg>
