<svg width="37" height="36" viewBox="0 0 37 36" fill="none" xmlns="http://www.w3.org/2000/svg">
<g id="ion:water-outline">
<path id="Vector" d="M28.2915 22.5C28.2915 28.7135 24.38 32.625 18.1665 32.625C11.953 32.625 8.0415 28.7135 8.0415 22.5C8.0415 15.8323 15.2999 6.83089 17.526 4.22722C17.6052 4.13471 17.7035 4.06045 17.8141 4.00953C17.9247 3.95862 18.0451 3.93225 18.1669 3.93225C18.2886 3.93225 18.409 3.95862 18.5196 4.00953C18.6302 4.06045 18.7285 4.13471 18.8078 4.22722C21.0331 6.83089 28.2915 15.8323 28.2915 22.5Z" stroke="#752DC1" stroke-width="2" stroke-miterlimit="10"/>
<path id="Vector_2" d="M24.354 23.0625C24.354 24.4052 23.8206 25.6928 22.8712 26.6422C21.9218 27.5916 20.6342 28.125 19.2915 28.125" stroke="#752DC1" stroke-width="2" stroke-linecap="round" stroke-linejoin="round"/>
</g>
</svg>
