<svg width="36" height="32" viewBox="0 0 36 32" fill="none" xmlns="http://www.w3.org/2000/svg">
<g id="material-symbols:sensors-krx-outline-rounded">
<path id="Vector" d="M5.94475 16C5.94475 16.8444 6.04868 17.6724 6.25655 18.484C6.46441 19.2956 6.77523 20.0564 7.189 20.7667C7.38418 21.1 7.43932 21.4556 7.35442 21.8333C7.26952 22.2111 7.0558 22.5 6.71326 22.7C6.3717 22.9222 6.00574 22.9836 5.61539 22.884C5.22503 22.7844 4.93227 22.5676 4.73709 22.2333C4.17596 21.3 3.749 20.3111 3.45624 19.2667C3.16347 18.2222 3.01709 17.1333 3.01709 16C3.01709 14.8667 3.16347 13.772 3.45624 12.716C3.749 11.66 4.17596 10.6658 4.73709 9.73333C4.93227 9.4 5.22503 9.18889 5.61539 9.1C6.00574 9.01111 6.3717 9.07778 6.71326 9.3C7.05482 9.5 7.26854 9.78889 7.35442 10.1667C7.4403 10.5444 7.38516 10.9 7.189 11.2333C6.77425 11.9444 6.46343 12.7058 6.25655 13.5173C6.04966 14.3289 5.94573 15.1564 5.94475 16ZM17.6554 24C15.2157 24 13.1419 23.2222 11.4341 21.6667C9.72631 20.1111 8.87241 18.2222 8.87241 16C8.87241 13.7778 9.72631 11.8889 11.4341 10.3333C13.1419 8.77778 15.2157 8 17.6554 8C20.0951 8 22.1689 8.77778 23.8767 10.3333C25.5845 11.8889 26.4384 13.7778 26.4384 16C26.4384 18.2222 25.5845 20.1111 23.8767 21.6667C22.1689 23.2222 20.0951 24 17.6554 24ZM17.6554 21.3333C19.2656 21.3333 20.644 20.8111 21.7907 19.7667C22.9374 18.7222 23.5107 17.4667 23.5107 16C23.5107 14.5333 22.9374 13.2778 21.7907 12.2333C20.644 11.1889 19.2656 10.6667 17.6554 10.6667C16.0452 10.6667 14.6667 11.1889 13.5201 12.2333C12.3734 13.2778 11.8001 14.5333 11.8001 16C11.8001 17.4667 12.3734 18.7222 13.5201 19.7667C14.6667 20.8111 16.0452 21.3333 17.6554 21.3333ZM29.366 16C29.366 15.1556 29.2621 14.328 29.0542 13.5173C28.8464 12.7067 28.5355 11.9453 28.1218 11.2333C27.9266 10.9 27.8656 10.5444 27.9388 10.1667C28.012 9.78889 28.2194 9.5 28.5609 9.3C28.9025 9.07778 29.2748 9.01111 29.6778 9.1C30.0809 9.18889 30.3795 9.4 30.5737 9.73333C31.1348 10.6667 31.5618 11.6613 31.8545 12.7173C32.1473 13.7733 32.2937 14.8676 32.2937 16C32.2937 17.1324 32.1473 18.2213 31.8545 19.2667C31.5618 20.312 31.1348 21.3009 30.5737 22.2333C30.3785 22.5667 30.0799 22.7836 29.6778 22.884C29.2758 22.9844 28.9035 22.9231 28.5609 22.7C28.2194 22.5 28.012 22.2111 27.9388 21.8333C27.8656 21.4556 27.9266 21.1 28.1218 20.7667C28.5365 20.0556 28.8478 19.2947 29.0557 18.484C29.2636 17.6733 29.367 16.8453 29.366 16Z" fill="#9D9797"/>
<path id="Vector_2" d="M5.94475 16C5.94475 16.8444 6.04868 17.6724 6.25655 18.484C6.46441 19.2956 6.77523 20.0564 7.189 20.7667C7.38418 21.1 7.43932 21.4556 7.35442 21.8333C7.26952 22.2111 7.0558 22.5 6.71326 22.7C6.3717 22.9222 6.00574 22.9836 5.61539 22.884C5.22503 22.7844 4.93227 22.5676 4.73709 22.2333C4.17596 21.3 3.749 20.3111 3.45624 19.2667C3.16347 18.2222 3.01709 17.1333 3.01709 16C3.01709 14.8667 3.16347 13.772 3.45624 12.716C3.749 11.66 4.17596 10.6658 4.73709 9.73333C4.93227 9.4 5.22503 9.18889 5.61539 9.1C6.00574 9.01111 6.3717 9.07778 6.71326 9.3C7.05482 9.5 7.26854 9.78889 7.35442 10.1667C7.4403 10.5444 7.38516 10.9 7.189 11.2333C6.77425 11.9444 6.46343 12.7058 6.25655 13.5173C6.04966 14.3289 5.94573 15.1564 5.94475 16ZM17.6554 24C15.2157 24 13.1419 23.2222 11.4341 21.6667C9.72631 20.1111 8.87241 18.2222 8.87241 16C8.87241 13.7778 9.72631 11.8889 11.4341 10.3333C13.1419 8.77778 15.2157 8 17.6554 8C20.0951 8 22.1689 8.77778 23.8767 10.3333C25.5845 11.8889 26.4384 13.7778 26.4384 16C26.4384 18.2222 25.5845 20.1111 23.8767 21.6667C22.1689 23.2222 20.0951 24 17.6554 24ZM17.6554 21.3333C19.2656 21.3333 20.644 20.8111 21.7907 19.7667C22.9374 18.7222 23.5107 17.4667 23.5107 16C23.5107 14.5333 22.9374 13.2778 21.7907 12.2333C20.644 11.1889 19.2656 10.6667 17.6554 10.6667C16.0452 10.6667 14.6667 11.1889 13.5201 12.2333C12.3734 13.2778 11.8001 14.5333 11.8001 16C11.8001 17.4667 12.3734 18.7222 13.5201 19.7667C14.6667 20.8111 16.0452 21.3333 17.6554 21.3333ZM29.366 16C29.366 15.1556 29.2621 14.328 29.0542 13.5173C28.8464 12.7067 28.5355 11.9453 28.1218 11.2333C27.9266 10.9 27.8656 10.5444 27.9388 10.1667C28.012 9.78889 28.2194 9.5 28.5609 9.3C28.9025 9.07778 29.2748 9.01111 29.6778 9.1C30.0809 9.18889 30.3795 9.4 30.5737 9.73333C31.1348 10.6667 31.5618 11.6613 31.8545 12.7173C32.1473 13.7733 32.2937 14.8676 32.2937 16C32.2937 17.1324 32.1473 18.2213 31.8545 19.2667C31.5618 20.312 31.1348 21.3009 30.5737 22.2333C30.3785 22.5667 30.0799 22.7836 29.6778 22.884C29.2758 22.9844 28.9035 22.9231 28.5609 22.7C28.2194 22.5 28.012 22.2111 27.9388 21.8333C27.8656 21.4556 27.9266 21.1 28.1218 20.7667C28.5365 20.0556 28.8478 19.2947 29.0557 18.484C29.2636 17.6733 29.367 16.8453 29.366 16Z" fill="#9D9797"/>
</g>
</svg>
