<svg width="54" height="49" viewBox="0 0 54 49" fill="none" xmlns="http://www.w3.org/2000/svg">
<g id="Ellipse 34">
<path d="M53.9153 24.1631C53.9153 37.508 41.8459 48.3261 26.9576 48.3261C12.0693 48.3261 0 37.508 0 24.1631C0 10.8182 12.0693 0 26.9576 0C41.8459 0 53.9153 10.8182 53.9153 24.1631Z" fill="#CC25D8" fill-opacity="0.12"/>
<path d="M13.875 21.0054V19.9506H12.5793V21.0054H13.875ZM24.2408 21.0054V19.9506H22.945V21.0054H24.2408ZM24.2408 29.4434H22.945V30.4981H24.2408V29.4434ZM42.3809 14.6768H43.6766V14.2402L43.2982 13.9301L42.3809 14.6768ZM34.6065 8.34833L35.5239 7.60157L35.143 7.29358H34.6065V8.34833ZM13.875 22.0601H16.4664V19.9506H13.875V22.0601ZM15.1707 30.4981V25.2244H12.5793V30.4981H15.1707ZM15.1707 25.2244V21.0054H12.5793V25.2244H15.1707ZM16.4664 24.1696H13.875V26.2791H16.4664V24.1696ZM17.7621 23.1149C17.7621 23.3946 17.6256 23.6629 17.3826 23.8607C17.1396 24.0585 16.8101 24.1696 16.4664 24.1696V26.2791C17.4974 26.2791 18.4861 25.9457 19.2151 25.3523C19.944 24.7589 20.3536 23.9541 20.3536 23.1149H17.7621ZM16.4664 22.0601C16.8101 22.0601 17.1396 22.1712 17.3826 22.369C17.6256 22.5668 17.7621 22.8351 17.7621 23.1149H20.3536C20.3536 22.2756 19.944 21.4708 19.2151 20.8774C18.4861 20.284 17.4974 19.9506 16.4664 19.9506V22.0601ZM22.945 21.0054V29.4434H25.5365V21.0054H22.945ZM24.2408 30.4981H26.8322V28.3886H24.2408V30.4981ZM30.7194 27.3339V23.1149H28.1279V27.3339H30.7194ZM26.8322 19.9506H24.2408V22.0601H26.8322V19.9506ZM30.7194 23.1149C30.7194 22.2756 30.3098 21.4708 29.5808 20.8774C28.8519 20.284 27.8631 19.9506 26.8322 19.9506V22.0601C27.1758 22.0601 27.5054 22.1712 27.7484 22.369C27.9914 22.5668 28.1279 22.8351 28.1279 23.1149H30.7194ZM26.8322 30.4981C27.8631 30.4981 28.8519 30.1647 29.5808 29.5713C30.3098 28.9779 30.7194 28.1731 30.7194 27.3339H28.1279C28.1279 27.6136 27.9914 27.8819 27.7484 28.0797C27.5054 28.2775 27.1758 28.3886 26.8322 28.3886V30.4981ZM33.3108 19.9506V30.4981H35.9023V19.9506H33.3108ZM34.6065 22.0601H41.0851V19.9506H34.6065V22.0601ZM34.6065 26.2791H38.4937V24.1696H34.6065V26.2791ZM12.5793 17.8411V10.4578H9.98781V17.8411H12.5793ZM41.0851 14.6768V17.8411H43.6766V14.6768H41.0851ZM13.875 9.40308H34.6065V7.29358H13.875V9.40308ZM33.6892 9.0951L41.4635 15.4236L43.2982 13.9301L35.5239 7.60157L33.6892 9.0951ZM12.5793 10.4578C12.5793 10.1781 12.7158 9.90982 12.9588 9.71202C13.2018 9.51421 13.5313 9.40308 13.875 9.40308V7.29358C12.844 7.29358 11.8553 7.62696 11.1263 8.22037C10.3974 8.81378 9.98781 9.61862 9.98781 10.4578H12.5793ZM9.98781 32.6076V35.7719H12.5793V32.6076H9.98781ZM13.875 38.9361H39.7894V36.8266H13.875V38.9361ZM43.6766 35.7719V32.6076H41.0851V35.7719H43.6766ZM39.7894 38.9361C40.8204 38.9361 41.8091 38.6027 42.5381 38.0093C43.2671 37.4159 43.6766 36.6111 43.6766 35.7719H41.0851C41.0851 36.0516 40.9486 36.3199 40.7056 36.5177C40.4626 36.7155 40.1331 36.8266 39.7894 36.8266V38.9361ZM9.98781 35.7719C9.98781 36.6111 10.3974 37.4159 11.1263 38.0093C11.8553 38.6027 12.844 38.9361 13.875 38.9361V36.8266C13.5313 36.8266 13.2018 36.7155 12.9588 36.5177C12.7158 36.3199 12.5793 36.0516 12.5793 35.7719H9.98781Z" fill="black"/>
</g>
</svg>
