<svg width="15" height="17" viewBox="0 0 15 17" fill="none" xmlns="http://www.w3.org/2000/svg">
<g id="pencil-alt 1" clip-path="url(#clip0_339_4213)">
<path id="Vector" d="M14.587 4.67243L13.2365 6.09459C13.0988 6.23958 12.8761 6.23958 12.7384 6.09459L9.48646 2.67029C9.34876 2.5253 9.34876 2.29084 9.48646 2.14585L10.837 0.723681C11.3849 0.146794 12.2755 0.146794 12.8263 0.723681L14.587 2.57774C15.1378 3.15463 15.1378 4.09245 14.587 4.67243ZM8.3263 3.36749L0.632942 11.4686L0.0118485 15.2168C-0.0731124 15.7227 0.345833 16.1608 0.826302 16.0744L4.38587 15.4173L12.0792 7.31623C12.2169 7.17124 12.2169 6.93678 12.0792 6.79179L8.82728 3.36749C8.68665 3.2225 8.464 3.2225 8.3263 3.36749ZM3.63587 10.7745C3.47474 10.6048 3.47474 10.3333 3.63587 10.1636L8.14759 5.41282C8.30872 5.24314 8.56654 5.24314 8.72767 5.41282C8.8888 5.58249 8.8888 5.85396 8.72767 6.02364L4.21595 10.7745C4.05482 10.9441 3.797 10.9441 3.63587 10.7745ZM2.57825 13.3689H3.9845V14.4888L2.09486 14.8374L1.18372 13.8779L1.51478 11.8881H2.57825V13.3689Z" fill="white"/>
</g>
<defs>
<clipPath id="clip0_339_4213">
<rect width="15" height="15.795" fill="white" transform="translate(0 0.288696)"/>
</clipPath>
</defs>
</svg>
