<svg width="33" height="32" viewBox="0 0 33 32" fill="none" xmlns="http://www.w3.org/2000/svg">
<g id="material-symbols:sensors-krx-outline-rounded">
<path id="Vector" d="M5.43717 16C5.43717 16.8444 5.53184 17.6724 5.72117 18.484C5.91051 19.2956 6.19362 20.0564 6.57051 20.7667C6.74829 21.1 6.79851 21.4556 6.72117 21.8333C6.64384 22.2111 6.44917 22.5 6.13717 22.7C5.82606 22.9222 5.49273 22.9836 5.13717 22.884C4.78162 22.7844 4.51495 22.5676 4.33717 22.2333C3.82606 21.3 3.43717 20.3111 3.17051 19.2667C2.90384 18.2222 2.77051 17.1333 2.77051 16C2.77051 14.8667 2.90384 13.772 3.17051 12.716C3.43717 11.66 3.82606 10.6658 4.33717 9.73333C4.51495 9.4 4.78162 9.18889 5.13717 9.1C5.49273 9.01111 5.82606 9.07778 6.13717 9.3C6.44829 9.5 6.64295 9.78889 6.72117 10.1667C6.7994 10.5444 6.74917 10.9 6.57051 11.2333C6.19273 11.9444 5.90962 12.7058 5.72117 13.5173C5.53273 14.3289 5.43806 15.1564 5.43717 16ZM16.1038 24C13.8816 24 11.9927 23.2222 10.4372 21.6667C8.88162 20.1111 8.10384 18.2222 8.10384 16C8.10384 13.7778 8.88162 11.8889 10.4372 10.3333C11.9927 8.77778 13.8816 8 16.1038 8C18.3261 8 20.215 8.77778 21.7705 10.3333C23.3261 11.8889 24.1038 13.7778 24.1038 16C24.1038 18.2222 23.3261 20.1111 21.7705 21.6667C20.215 23.2222 18.3261 24 16.1038 24ZM16.1038 21.3333C17.5705 21.3333 18.8261 20.8111 19.8705 19.7667C20.915 18.7222 21.4372 17.4667 21.4372 16C21.4372 14.5333 20.915 13.2778 19.8705 12.2333C18.8261 11.1889 17.5705 10.6667 16.1038 10.6667C14.6372 10.6667 13.3816 11.1889 12.3372 12.2333C11.2927 13.2778 10.7705 14.5333 10.7705 16C10.7705 17.4667 11.2927 18.7222 12.3372 19.7667C13.3816 20.8111 14.6372 21.3333 16.1038 21.3333ZM26.7705 16C26.7705 15.1556 26.6758 14.328 26.4865 13.5173C26.2972 12.7067 26.0141 11.9453 25.6372 11.2333C25.4594 10.9 25.4038 10.5444 25.4705 10.1667C25.5372 9.78889 25.7261 9.5 26.0372 9.3C26.3483 9.07778 26.6874 9.01111 27.0545 9.1C27.4216 9.18889 27.6936 9.4 27.8705 9.73333C28.3816 10.6667 28.7705 11.6613 29.0372 12.7173C29.3038 13.7733 29.4372 14.8676 29.4372 16C29.4372 17.1324 29.3038 18.2213 29.0372 19.2667C28.7705 20.312 28.3816 21.3009 27.8705 22.2333C27.6927 22.5667 27.4207 22.7836 27.0545 22.884C26.6883 22.9844 26.3492 22.9231 26.0372 22.7C25.7261 22.5 25.5372 22.2111 25.4705 21.8333C25.4038 21.4556 25.4594 21.1 25.6372 20.7667C26.015 20.0556 26.2985 19.2947 26.4878 18.484C26.6772 17.6733 26.7714 16.8453 26.7705 16Z" fill="#752DC1"/>
<path id="Vector_2" d="M5.43717 16C5.43717 16.8444 5.53184 17.6724 5.72117 18.484C5.91051 19.2956 6.19362 20.0564 6.57051 20.7667C6.74829 21.1 6.79851 21.4556 6.72117 21.8333C6.64384 22.2111 6.44917 22.5 6.13717 22.7C5.82606 22.9222 5.49273 22.9836 5.13717 22.884C4.78162 22.7844 4.51495 22.5676 4.33717 22.2333C3.82606 21.3 3.43717 20.3111 3.17051 19.2667C2.90384 18.2222 2.77051 17.1333 2.77051 16C2.77051 14.8667 2.90384 13.772 3.17051 12.716C3.43717 11.66 3.82606 10.6658 4.33717 9.73333C4.51495 9.4 4.78162 9.18889 5.13717 9.1C5.49273 9.01111 5.82606 9.07778 6.13717 9.3C6.44829 9.5 6.64295 9.78889 6.72117 10.1667C6.7994 10.5444 6.74917 10.9 6.57051 11.2333C6.19273 11.9444 5.90962 12.7058 5.72117 13.5173C5.53273 14.3289 5.43806 15.1564 5.43717 16ZM16.1038 24C13.8816 24 11.9927 23.2222 10.4372 21.6667C8.88162 20.1111 8.10384 18.2222 8.10384 16C8.10384 13.7778 8.88162 11.8889 10.4372 10.3333C11.9927 8.77778 13.8816 8 16.1038 8C18.3261 8 20.215 8.77778 21.7705 10.3333C23.3261 11.8889 24.1038 13.7778 24.1038 16C24.1038 18.2222 23.3261 20.1111 21.7705 21.6667C20.215 23.2222 18.3261 24 16.1038 24ZM16.1038 21.3333C17.5705 21.3333 18.8261 20.8111 19.8705 19.7667C20.915 18.7222 21.4372 17.4667 21.4372 16C21.4372 14.5333 20.915 13.2778 19.8705 12.2333C18.8261 11.1889 17.5705 10.6667 16.1038 10.6667C14.6372 10.6667 13.3816 11.1889 12.3372 12.2333C11.2927 13.2778 10.7705 14.5333 10.7705 16C10.7705 17.4667 11.2927 18.7222 12.3372 19.7667C13.3816 20.8111 14.6372 21.3333 16.1038 21.3333ZM26.7705 16C26.7705 15.1556 26.6758 14.328 26.4865 13.5173C26.2972 12.7067 26.0141 11.9453 25.6372 11.2333C25.4594 10.9 25.4038 10.5444 25.4705 10.1667C25.5372 9.78889 25.7261 9.5 26.0372 9.3C26.3483 9.07778 26.6874 9.01111 27.0545 9.1C27.4216 9.18889 27.6936 9.4 27.8705 9.73333C28.3816 10.6667 28.7705 11.6613 29.0372 12.7173C29.3038 13.7733 29.4372 14.8676 29.4372 16C29.4372 17.1324 29.3038 18.2213 29.0372 19.2667C28.7705 20.312 28.3816 21.3009 27.8705 22.2333C27.6927 22.5667 27.4207 22.7836 27.0545 22.884C26.6883 22.9844 26.3492 22.9231 26.0372 22.7C25.7261 22.5 25.5372 22.2111 25.4705 21.8333C25.4038 21.4556 25.4594 21.1 25.6372 20.7667C26.015 20.0556 26.2985 19.2947 26.4878 18.484C26.6772 17.6733 26.7714 16.8453 26.7705 16Z" fill="#752DC1"/>
</g>
</svg>
