<svg width="34" height="28" viewBox="0 0 34 28" fill="none" xmlns="http://www.w3.org/2000/svg">
<g id="service 1" clip-path="url(#clip0_398_402)">
<g id="Group">
<g id="Group_2">
<path id="Vector" d="M32.9434 1.36782L31.5746 0.234812C31.2892 -0.00147895 30.8567 -0.0662133 30.4897 0.0715875L23.1373 2.75801C22.848 2.86697 22.642 3.08611 22.5852 3.34441C22.529 3.6034 22.6286 3.86832 22.8532 4.05425L28.3288 8.58624C28.5534 8.77216 28.8735 8.85458 29.1864 8.80805C29.4985 8.76111 29.7633 8.59067 29.8949 8.35112L33.1406 2.26567C33.3071 1.96192 33.2289 1.60401 32.9434 1.36782Z" fill="#9D9797"/>
</g>
</g>
<g id="Group_3">
<g id="Group_4">
<path id="Vector_2" d="M6.44014 17.639L1.03626 22.1117C-0.0960722 23.0489 -0.0960722 24.5735 1.03626 25.5107L2.40511 26.6436C3.53744 27.5808 5.3795 27.5808 6.51177 26.6436L11.9156 22.171L6.44014 17.639ZM5.83683 23.8145C5.45848 24.1277 4.84614 24.1277 4.46786 23.8145C4.08964 23.5014 4.08964 22.9946 4.46786 22.6816L7.13398 20.4749C7.51233 20.1617 8.12461 20.1617 8.50283 20.4749C8.88117 20.7881 8.88117 21.2948 8.50283 21.6079L5.83683 23.8145Z" fill="#9D9797"/>
</g>
</g>
<g id="Group_5">
<g id="Group_6">
<path id="Vector_3" d="M16.0225 18.772L10.5469 14.24C9.79224 13.6153 8.56382 13.6153 7.80919 14.24C7.05449 14.8646 7.05449 15.8813 7.80919 16.5059L13.2848 21.0379C14.0393 21.6626 15.2678 21.6626 16.0225 21.0379C16.7772 20.4134 16.7772 19.3966 16.0225 18.772Z" fill="#9D9797"/>
</g>
</g>
<g id="Group_7">
<g id="Group_8">
<path id="Vector_4" d="M25.5911 8.58621L22.8533 6.32019L15.3378 12.5406C14.5818 11.9149 13.3561 11.9149 12.6 12.5406L11.9155 13.1071L17.3911 17.6391L18.0756 17.0726C18.8316 16.4467 18.8316 15.4324 18.0756 14.8066L25.5911 8.58621Z" fill="#9D9797"/>
</g>
</g>
<g id="Group_9">
<g id="Group_10">
<path id="Vector_5" d="M31.5284 19.1403C29.957 17.8397 28.0674 17.56 25.8993 17.8807L21.4986 14.2388L20.4477 15.1086C20.7937 16.1848 20.4573 17.3664 19.4438 18.2052L18.7607 18.7706L21.7893 21.277C21.4839 22.6914 21.5126 23.8909 22.5738 25.192C23.7985 26.694 25.9419 27.5477 28.1875 27.2919C28.5588 27.2496 28.8688 27.0365 28.9882 26.7425C29.1075 26.4486 29.0155 26.124 28.7506 25.9046L27.4193 24.8047V22.539H30.1597L31.4835 23.6348C31.7489 23.8545 32.1422 23.9301 32.4976 23.8306C32.8532 23.731 33.1099 23.4732 33.1598 23.1652C33.3962 21.7079 32.8202 20.209 31.5284 19.1403Z" fill="#9D9797"/>
</g>
</g>
<g id="Group_11">
<g id="Group_12">
<path id="Vector_6" d="M11.6112 6.05165C11.9953 4.27589 11.6843 2.71372 10.0893 1.39264C9.0041 0.494481 7.55214 0 6.00093 0C5.73977 0 5.48138 0.0141006 5.22635 0.0420346C4.85394 0.0829476 4.54219 0.295631 4.42177 0.590194C4.30136 0.884649 4.39332 1.21024 4.65893 1.43008L5.99576 2.52555V4.80695H3.24459L1.91769 3.69333C1.65266 3.47397 1.26011 3.39807 0.904803 3.49704C0.549621 3.59601 0.292721 3.85292 0.241676 4.1603C-0.0532329 5.93767 0.877248 7.74334 2.7757 8.80409C4.35363 9.68398 5.81166 9.70577 7.50768 9.45271L10.5485 11.9736L11.2318 11.408C12.2453 10.5692 13.6728 10.2908 14.9731 10.5771L16.0236 9.7077L11.6112 6.05165Z" fill="#9D9797"/>
</g>
</g>
</g>
<defs>
<clipPath id="clip0_398_402">
<rect width="33.0402" height="27.3466" fill="white" transform="translate(0.187012)"/>
</clipPath>
</defs>
</svg>
