<svg width="31" height="28" viewBox="0 0 31 28" fill="none" xmlns="http://www.w3.org/2000/svg">
<g clip-path="url(#clip0_73_1640)">
<path d="M29.8364 1.36782L28.5896 0.234812C28.3296 -0.00147895 27.9357 -0.0662133 27.6014 0.0715875L20.9045 2.75801C20.6409 2.86697 20.4533 3.08611 20.4016 3.34441C20.3504 3.6034 20.4411 3.86832 20.6457 4.05425L25.6332 8.58624C25.8378 8.77216 26.1293 8.85458 26.4143 8.80805C26.6986 8.76111 26.9398 8.59067 27.0597 8.35112L30.016 2.26567C30.1677 1.96192 30.0964 1.60401 29.8364 1.36782Z" fill="#752DC1"/>
<path d="M5.69568 17.639L0.773543 22.1117C-0.257848 23.0489 -0.257848 24.5735 0.773543 25.5107L2.02036 26.6436C3.05175 27.5808 4.72959 27.5808 5.76092 26.6436L10.6831 22.171L5.69568 17.639ZM5.14615 23.8145C4.80154 24.1277 4.24378 24.1277 3.89922 23.8145C3.55472 23.5014 3.55472 22.9946 3.89922 22.6816L6.32767 20.4749C6.67229 20.1617 7.22998 20.1617 7.57448 20.4749C7.9191 20.7881 7.9191 21.2948 7.57448 21.6079L5.14615 23.8145Z" fill="#752DC1"/>
<path d="M14.4237 18.772L9.43625 14.24C8.74884 13.6153 7.62992 13.6153 6.94257 14.24C6.25515 14.8646 6.25515 15.8813 6.94257 16.5059L11.93 21.0379C12.6173 21.6626 13.7363 21.6626 14.4237 21.0379C15.1111 20.4134 15.1111 19.3966 14.4237 18.772Z" fill="#752DC1"/>
<path d="M23.1396 8.58621L20.6458 6.32019L13.8003 12.5406C13.1117 11.9149 11.9953 11.9149 11.3066 12.5406L10.6831 13.1071L15.6705 17.6391L16.294 17.0726C16.9826 16.4467 16.9826 15.4324 16.294 14.8066L23.1396 8.58621Z" fill="#752DC1"/>
<path d="M28.5475 19.1403C27.1162 17.8397 25.3951 17.56 23.4203 17.8807L19.4119 14.2388L18.4547 15.1086C18.7699 16.1848 18.4634 17.3664 17.5403 18.2052L16.9181 18.7706L19.6766 21.277C19.3985 22.6914 19.4246 23.8909 20.3913 25.192C21.5068 26.694 23.4591 27.5477 25.5045 27.2919C25.8426 27.2496 26.1251 27.0365 26.2338 26.7425C26.3424 26.4486 26.2586 26.124 26.0173 25.9046L24.8048 24.8047V22.539H27.3008L28.5066 23.6348C28.7484 23.8545 29.1066 23.9301 29.4304 23.8306C29.7543 23.731 29.988 23.4732 30.0335 23.1652C30.2488 21.7079 29.7242 20.209 28.5475 19.1403Z" fill="#752DC1"/>
<path d="M10.4057 6.05165C10.7556 4.27589 10.4723 2.71372 9.01952 1.39264C8.03103 0.494481 6.70851 0 5.29559 0C5.05771 0 4.82236 0.0141006 4.59006 0.0420346C4.25085 0.0829476 3.96689 0.295631 3.85721 0.590194C3.74753 0.884649 3.83129 1.21024 4.07322 1.43008L5.29088 2.52555V4.80695H2.78497L1.57636 3.69333C1.33495 3.47397 0.977403 3.39807 0.653767 3.49704C0.330249 3.59601 0.0962505 3.85292 0.0497565 4.1603C-0.218862 5.93767 0.628669 7.74334 2.35788 8.80409C3.79514 9.68398 5.12319 9.70577 6.66801 9.45271L9.43773 11.9736L10.0601 11.408C10.9833 10.5692 12.2836 10.2908 13.468 10.5771L14.4248 9.7077L10.4057 6.05165Z" fill="#752DC1"/>
</g>
<defs>
<clipPath id="clip0_73_1640">
<rect width="30.0948" height="27.3466" fill="white"/>
</clipPath>
</defs>
</svg>
