<svg width="34" height="28" viewBox="0 0 34 28" fill="none" xmlns="http://www.w3.org/2000/svg">
<g id="settings solid 1" clip-path="url(#clip0_398_421)">
<path id="Vector" d="M30.1856 10.2977H29.4841C29.2563 9.7075 28.9688 9.13418 28.6244 8.58335L29.1212 8.17219C30.3256 7.17634 30.2934 5.58041 29.1215 4.61153L27.656 3.39856C26.4861 2.42899 24.5575 2.40089 23.354 3.39819L22.8568 3.80967C22.1913 3.52466 21.4985 3.28666 20.7855 3.09807V2.51743C20.7855 1.12933 19.4211 0 17.7439 0H15.6703C13.9932 0 12.6287 1.12933 12.6287 2.51743V3.09807C11.9157 3.28661 11.223 3.52461 10.5574 3.80967L10.0607 3.39856C8.85962 2.40324 6.93109 2.42658 5.75881 3.39824L4.2931 4.61126C3.12172 5.57972 3.08784 7.17575 4.29271 8.17193L4.78986 8.58341C4.44546 9.13424 4.15797 9.7075 3.93011 10.2977H3.22865C1.55153 10.2977 0.187012 11.427 0.187012 12.8151V14.5314C0.187012 15.9196 1.55153 17.0489 3.22865 17.0489H3.93011C4.15797 17.6391 4.44546 18.2124 4.78986 18.7632L4.2931 19.1744C3.08862 20.1702 3.12088 21.7662 4.29271 22.735L5.75829 23.948C6.92819 24.9176 8.85678 24.9457 10.0603 23.9484L10.5574 23.5369C11.223 23.8219 11.9157 24.0599 12.6287 24.2485V24.8291C12.6287 26.2173 13.9932 27.3466 15.6704 27.3466H17.744C19.4211 27.3466 20.7856 26.2173 20.7856 24.8291V24.2485C21.4986 24.06 22.1914 23.822 22.8569 23.5369L23.3536 23.948C24.5547 24.9433 26.4832 24.92 27.6555 23.9483L29.1212 22.7353C30.2926 21.7668 30.3265 20.1708 29.1216 19.1746L28.6245 18.7631C28.9689 18.2123 29.2563 17.639 29.4842 17.0488H30.1857C31.8628 17.0488 33.2273 15.9194 33.2273 14.5313V12.815C33.2272 11.427 31.8627 10.2977 30.1856 10.2977ZM16.7071 19.6233C12.7431 19.6233 9.5183 16.9541 9.5183 13.6733C9.5183 10.3924 12.7431 7.72327 16.7071 7.72327C20.6711 7.72327 23.896 10.3924 23.896 13.6733C23.896 16.9541 20.6711 19.6233 16.7071 19.6233Z" fill="#9D9797"/>
</g>
<defs>
<clipPath id="clip0_398_421">
<rect width="33.0402" height="27.3466" fill="white" transform="translate(0.187012)"/>
</clipPath>
</defs>
</svg>
