<svg width="31" height="28" viewBox="0 0 31 28" fill="none" xmlns="http://www.w3.org/2000/svg">
<g id="user 3 1" clip-path="url(#clip0_637_4859)">
<path id="Vector" d="M14.8331 13.1729C16.8247 13.1729 18.5493 12.5239 19.9583 11.2432C21.3674 9.96283 22.0817 8.39618 22.0817 6.58625C22.0817 4.77695 21.3674 3.21009 19.9581 1.92927C18.5488 0.64907 16.8245 0 14.8331 0C12.8413 0 11.1172 0.64907 9.70809 1.92948C8.299 3.20988 7.58447 4.77674 7.58447 6.58625C7.58447 8.39618 8.299 9.96304 9.70832 11.2434C11.1176 12.5236 12.842 13.1729 14.8331 13.1729Z" fill="#752DC1"/>
<path id="Vector_2" d="M27.5161 21.0281C27.4755 20.4952 27.3933 19.914 27.2723 19.3002C27.1501 18.6818 26.9929 18.0972 26.8046 17.5628C26.6101 17.0106 26.3456 16.4652 26.0186 15.9426C25.6793 15.4001 25.2807 14.9278 24.8334 14.5391C24.3657 14.1324 23.7931 13.8055 23.1309 13.567C22.471 13.3298 21.7397 13.2096 20.9575 13.2096C20.6503 13.2096 20.3531 13.3242 19.7794 13.6636C19.4262 13.8729 19.0132 14.1149 18.5521 14.3826C18.1579 14.6108 17.6238 14.8247 16.9642 15.0183C16.3206 15.2075 15.6671 15.3035 15.0222 15.3035C14.3772 15.3035 13.724 15.2075 13.0797 15.0183C12.4207 14.8249 11.8867 14.611 11.4929 14.3828C11.0362 14.1176 10.6229 13.8756 10.2645 13.6634C9.69143 13.324 9.3941 13.2094 9.08688 13.2094C8.30439 13.2094 7.57333 13.3298 6.91367 13.5672C6.25195 13.8053 5.67909 14.1322 5.21092 14.5393C4.76388 14.9282 4.36506 15.4003 4.02616 15.9426C3.69943 16.4652 3.43493 17.0104 3.24022 17.5631C3.05218 18.0974 2.8949 18.6818 2.77275 19.3002C2.65175 19.9131 2.56955 20.4946 2.52891 21.0287C2.48896 21.552 2.46875 22.0951 2.46875 22.6436C2.46875 24.0711 2.96814 25.2267 3.95292 26.079C4.92552 26.92 6.21246 27.3467 7.77745 27.3467H22.2683C23.8333 27.3467 25.1197 26.9202 26.0926 26.079C27.0776 25.2273 27.577 24.0715 27.577 22.6434C27.5767 22.0924 27.5563 21.5489 27.5161 21.0281Z" fill="#752DC1"/>
</g>
<defs>
<clipPath id="clip0_637_4859">
<rect width="30.0948" height="27.3466" fill="white"/>
</clipPath>
</defs>
</svg>
