<svg width="34" height="29" viewBox="0 0 34 29" fill="none" xmlns="http://www.w3.org/2000/svg">
<g id="user 3 1" clip-path="url(#clip0_665_839)">
<path id="Vector" d="M16.436 13.8765C18.6225 13.8765 20.5159 13.2275 22.0629 11.9469C23.6099 10.6664 24.3941 9.09979 24.3941 7.28987C24.3941 5.48057 23.6099 3.9137 22.0626 2.63288C20.5154 1.35268 18.6223 0.703613 16.436 0.703613C14.2492 0.703613 12.3564 1.35268 10.8094 2.63309C9.26239 3.91349 8.47793 5.48036 8.47793 7.28987C8.47793 9.09979 9.26239 10.6667 10.8096 11.9471C12.3569 13.2273 14.25 13.8765 16.436 13.8765Z" fill="#9D9797"/>
<path id="Vector_2" d="M30.3605 21.7318C30.3159 21.1989 30.2256 20.6176 30.0928 20.0038C29.9587 19.3854 29.786 18.8008 29.5793 18.2665C29.3658 17.7142 29.0754 17.1689 28.7164 16.6462C28.3439 16.1038 27.9063 15.6314 27.4152 15.2427C26.9017 14.8361 26.2731 14.5092 25.5461 14.2707C24.8216 14.0335 24.0187 13.9133 23.1599 13.9133C22.8226 13.9133 22.4964 14.0278 21.8665 14.3673C21.4788 14.5766 21.0253 14.8186 20.5191 15.0863C20.0863 15.3145 19.5 15.5284 18.7758 15.722C18.0692 15.9112 17.3518 16.0072 16.6437 16.0072C15.9356 16.0072 15.2185 15.9112 14.5111 15.722C13.7877 15.5286 13.2013 15.3147 12.769 15.0865C12.2677 14.8213 11.8139 14.5793 11.4204 14.3671C10.7912 14.0276 10.4648 13.9131 10.1275 13.9131C9.26844 13.9131 8.46583 14.0335 7.74161 14.2709C7.01513 14.509 6.3862 14.8359 5.87221 15.2429C5.38142 15.6318 4.94356 16.104 4.57149 16.6462C4.21279 17.1689 3.9224 17.714 3.70863 18.2667C3.50218 18.801 3.32951 19.3854 3.19541 20.0038C3.06256 20.6168 2.97232 21.1983 2.9277 21.7324C2.88384 22.2556 2.86166 22.7987 2.86166 23.3472C2.86166 24.7747 3.40992 25.9304 4.49108 26.7826C5.55888 27.6237 6.97177 28.0503 8.68993 28.0503H24.599C26.3172 28.0503 27.7296 27.6239 28.7976 26.7826C29.879 25.931 30.4273 24.7751 30.4273 23.347C30.427 22.796 30.4046 22.2525 30.3605 21.7318Z" fill="#9D9797"/>
</g>
<defs>
<clipPath id="clip0_665_839">
<rect width="33.0402" height="27.3466" fill="white" transform="translate(0.151321 0.703613)"/>
</clipPath>
</defs>
</svg>
