<svg width="34" height="29" viewBox="0 0 34 29" fill="none" xmlns="http://www.w3.org/2000/svg">
<g id="user 3 1" clip-path="url(#clip0_398_431)">
<path id="Vector" d="M16.4361 13.8765C18.6226 13.8765 20.516 13.2275 22.063 11.9469C23.61 10.6664 24.3942 9.09979 24.3942 7.28987C24.3942 5.48057 23.61 3.9137 22.0627 2.63288C20.5155 1.35268 18.6224 0.703613 16.4361 0.703613C14.2493 0.703613 12.3565 1.35268 10.8095 2.63309C9.26249 3.91349 8.47803 5.48036 8.47803 7.28987C8.47803 9.09979 9.26249 10.6667 10.8097 11.9471C12.357 13.2273 14.2501 13.8765 16.4361 13.8765Z" fill="#9D9797"/>
<path id="Vector_2" d="M30.3606 21.7318C30.316 21.1989 30.2258 20.6176 30.0929 20.0038C29.9588 19.3854 29.7862 18.8008 29.5795 18.2665C29.3659 17.7142 29.0756 17.1689 28.7166 16.6462C28.344 16.1038 27.9064 15.6314 27.4154 15.2427C26.9019 14.8361 26.2732 14.5092 25.5462 14.2707C24.8218 14.0335 24.0189 13.9133 23.1601 13.9133C22.8228 13.9133 22.4966 14.0278 21.8667 14.3673C21.479 14.5766 21.0255 14.8186 20.5193 15.0863C20.0865 15.3145 19.5002 15.5284 18.7759 15.722C18.0694 15.9112 17.352 16.0072 16.6439 16.0072C15.9358 16.0072 15.2186 15.9112 14.5113 15.722C13.7878 15.5286 13.2015 15.3147 12.7692 15.0865C12.2678 14.8213 11.8141 14.5793 11.4206 14.3671C10.7914 14.0276 10.465 13.9131 10.1277 13.9131C9.2686 13.9131 8.46599 14.0335 7.74177 14.2709C7.01529 14.509 6.38636 14.8359 5.87237 15.2429C5.38158 15.6318 4.94372 16.104 4.57165 16.6462C4.21295 17.1689 3.92256 17.714 3.7088 18.2667C3.50234 18.801 3.32967 19.3854 3.19557 20.0038C3.06272 20.6168 2.97248 21.1983 2.92786 21.7324C2.884 22.2556 2.86182 22.7987 2.86182 23.3472C2.86182 24.7747 3.41008 25.9304 4.49124 26.7826C5.55904 27.6237 6.97193 28.0503 8.69009 28.0503H24.5992C26.3173 28.0503 27.7297 27.6239 28.7978 26.7826C29.8792 25.931 30.4274 24.7751 30.4274 23.347C30.4272 22.796 30.4048 22.2525 30.3606 21.7318Z" fill="#9D9797"/>
</g>
<defs>
<clipPath id="clip0_398_431">
<rect width="33.0402" height="27.3466" fill="white" transform="translate(0.151367 0.703613)"/>
</clipPath>
</defs>
</svg>
