<svg width="33" height="33" viewBox="0 0 33 33" fill="none" xmlns="http://www.w3.org/2000/svg">
<g id="material-symbols:sensors-krx-outline-rounded">
<path id="Vector" d="M5.83317 16.5C5.83317 17.3444 5.92784 18.1724 6.11717 18.984C6.3065 19.7956 6.58962 20.5564 6.9665 21.2667C7.14428 21.6 7.1945 21.9556 7.11717 22.3333C7.03984 22.7111 6.84517 23 6.53317 23.2C6.22206 23.4222 5.88873 23.4836 5.53317 23.384C5.17762 23.2844 4.91095 23.0676 4.73317 22.7333C4.22206 21.8 3.83317 20.8111 3.5665 19.7667C3.29984 18.7222 3.1665 17.6333 3.1665 16.5C3.1665 15.3667 3.29984 14.272 3.5665 13.216C3.83317 12.16 4.22206 11.1658 4.73317 10.2333C4.91095 9.9 5.17762 9.68889 5.53317 9.6C5.88873 9.51111 6.22206 9.57778 6.53317 9.8C6.84428 10 7.03895 10.2889 7.11717 10.6667C7.19539 11.0444 7.14517 11.4 6.9665 11.7333C6.58873 12.4444 6.30561 13.2058 6.11717 14.0173C5.92873 14.8289 5.83406 15.6564 5.83317 16.5ZM16.4998 24.5C14.2776 24.5 12.3887 23.7222 10.8332 22.1667C9.27762 20.6111 8.49984 18.7222 8.49984 16.5C8.49984 14.2778 9.27762 12.3889 10.8332 10.8333C12.3887 9.27778 14.2776 8.5 16.4998 8.5C18.7221 8.5 20.6109 9.27778 22.1665 10.8333C23.7221 12.3889 24.4998 14.2778 24.4998 16.5C24.4998 18.7222 23.7221 20.6111 22.1665 22.1667C20.6109 23.7222 18.7221 24.5 16.4998 24.5ZM16.4998 21.8333C17.9665 21.8333 19.2221 21.3111 20.2665 20.2667C21.3109 19.2222 21.8332 17.9667 21.8332 16.5C21.8332 15.0333 21.3109 13.7778 20.2665 12.7333C19.2221 11.6889 17.9665 11.1667 16.4998 11.1667C15.0332 11.1667 13.7776 11.6889 12.7332 12.7333C11.6887 13.7778 11.1665 15.0333 11.1665 16.5C11.1665 17.9667 11.6887 19.2222 12.7332 20.2667C13.7776 21.3111 15.0332 21.8333 16.4998 21.8333ZM27.1665 16.5C27.1665 15.6556 27.0718 14.828 26.8825 14.0173C26.6932 13.2067 26.4101 12.4453 26.0332 11.7333C25.8554 11.4 25.7998 11.0444 25.8665 10.6667C25.9332 10.2889 26.1221 10 26.4332 9.8C26.7443 9.57778 27.0834 9.51111 27.4505 9.6C27.8176 9.68889 28.0896 9.9 28.2665 10.2333C28.7776 11.1667 29.1665 12.1613 29.4332 13.2173C29.6998 14.2733 29.8332 15.3676 29.8332 16.5C29.8332 17.6324 29.6998 18.7213 29.4332 19.7667C29.1665 20.812 28.7776 21.8009 28.2665 22.7333C28.0887 23.0667 27.8167 23.2836 27.4505 23.384C27.0843 23.4844 26.7452 23.4231 26.4332 23.2C26.1221 23 25.9332 22.7111 25.8665 22.3333C25.7998 21.9556 25.8554 21.6 26.0332 21.2667C26.4109 20.5556 26.6945 19.7947 26.8838 18.984C27.0732 18.1733 27.1674 17.3453 27.1665 16.5Z" fill="white"/>
<path id="Vector_2" d="M5.83317 16.5C5.83317 17.3444 5.92784 18.1724 6.11717 18.984C6.3065 19.7956 6.58962 20.5564 6.9665 21.2667C7.14428 21.6 7.1945 21.9556 7.11717 22.3333C7.03984 22.7111 6.84517 23 6.53317 23.2C6.22206 23.4222 5.88873 23.4836 5.53317 23.384C5.17762 23.2844 4.91095 23.0676 4.73317 22.7333C4.22206 21.8 3.83317 20.8111 3.5665 19.7667C3.29984 18.7222 3.1665 17.6333 3.1665 16.5C3.1665 15.3667 3.29984 14.272 3.5665 13.216C3.83317 12.16 4.22206 11.1658 4.73317 10.2333C4.91095 9.9 5.17762 9.68889 5.53317 9.6C5.88873 9.51111 6.22206 9.57778 6.53317 9.8C6.84428 10 7.03895 10.2889 7.11717 10.6667C7.19539 11.0444 7.14517 11.4 6.9665 11.7333C6.58873 12.4444 6.30561 13.2058 6.11717 14.0173C5.92873 14.8289 5.83406 15.6564 5.83317 16.5ZM16.4998 24.5C14.2776 24.5 12.3887 23.7222 10.8332 22.1667C9.27762 20.6111 8.49984 18.7222 8.49984 16.5C8.49984 14.2778 9.27762 12.3889 10.8332 10.8333C12.3887 9.27778 14.2776 8.5 16.4998 8.5C18.7221 8.5 20.6109 9.27778 22.1665 10.8333C23.7221 12.3889 24.4998 14.2778 24.4998 16.5C24.4998 18.7222 23.7221 20.6111 22.1665 22.1667C20.6109 23.7222 18.7221 24.5 16.4998 24.5ZM16.4998 21.8333C17.9665 21.8333 19.2221 21.3111 20.2665 20.2667C21.3109 19.2222 21.8332 17.9667 21.8332 16.5C21.8332 15.0333 21.3109 13.7778 20.2665 12.7333C19.2221 11.6889 17.9665 11.1667 16.4998 11.1667C15.0332 11.1667 13.7776 11.6889 12.7332 12.7333C11.6887 13.7778 11.1665 15.0333 11.1665 16.5C11.1665 17.9667 11.6887 19.2222 12.7332 20.2667C13.7776 21.3111 15.0332 21.8333 16.4998 21.8333ZM27.1665 16.5C27.1665 15.6556 27.0718 14.828 26.8825 14.0173C26.6932 13.2067 26.4101 12.4453 26.0332 11.7333C25.8554 11.4 25.7998 11.0444 25.8665 10.6667C25.9332 10.2889 26.1221 10 26.4332 9.8C26.7443 9.57778 27.0834 9.51111 27.4505 9.6C27.8176 9.68889 28.0896 9.9 28.2665 10.2333C28.7776 11.1667 29.1665 12.1613 29.4332 13.2173C29.6998 14.2733 29.8332 15.3676 29.8332 16.5C29.8332 17.6324 29.6998 18.7213 29.4332 19.7667C29.1665 20.812 28.7776 21.8009 28.2665 22.7333C28.0887 23.0667 27.8167 23.2836 27.4505 23.384C27.0843 23.4844 26.7452 23.4231 26.4332 23.2C26.1221 23 25.9332 22.7111 25.8665 22.3333C25.7998 21.9556 25.8554 21.6 26.0332 21.2667C26.4109 20.5556 26.6945 19.7947 26.8838 18.984C27.0732 18.1733 27.1674 17.3453 27.1665 16.5Z" fill="white"/>
</g>
</svg>
