<svg width="32" height="33" viewBox="0 0 32 33" fill="none" xmlns="http://www.w3.org/2000/svg">
<g id="fluent:warning-16-filled">
<path id="Vector" d="M18.184 5.77602C17.967 5.38793 17.6503 5.06474 17.2668 4.83977C16.8833 4.61481 16.4466 4.49622 16.002 4.49622C15.5573 4.49622 15.1207 4.61481 14.7372 4.83977C14.3536 5.06474 14.037 5.38793 13.82 5.77602L4.31399 22.78C4.10135 23.1604 3.9918 23.5897 3.99622 24.0254C4.00064 24.4611 4.11886 24.8881 4.33917 25.264C4.55948 25.64 4.87423 25.9518 5.2522 26.1686C5.63017 26.3854 6.05825 26.4997 6.49399 26.5H25.502C25.9379 26.5 26.3662 26.386 26.7445 26.1693C27.1227 25.9527 27.4377 25.6409 27.6583 25.2649C27.8788 24.8889 27.9972 24.4618 28.0017 24.0259C28.0062 23.59 27.8967 23.1605 27.684 22.78L18.184 5.77602ZM17.5 21C17.5 21.3978 17.3419 21.7794 17.0606 22.0607C16.7793 22.342 16.3978 22.5 16 22.5C15.6022 22.5 15.2206 22.342 14.9393 22.0607C14.658 21.7794 14.5 21.3978 14.5 21C14.5 20.6022 14.658 20.2207 14.9393 19.9394C15.2206 19.6581 15.6022 19.5 16 19.5C16.3978 19.5 16.7793 19.6581 17.0606 19.9394C17.3419 20.2207 17.5 20.6022 17.5 21ZM15 16.5V11.5C15 11.2348 15.1053 10.9805 15.2929 10.7929C15.4804 10.6054 15.7348 10.5 16 10.5C16.2652 10.5 16.5196 10.6054 16.7071 10.7929C16.8946 10.9805 17 11.2348 17 11.5V16.5C17 16.7652 16.8946 17.0196 16.7071 17.2071C16.5196 17.3947 16.2652 17.5 16 17.5C15.7348 17.5 15.4804 17.3947 15.2929 17.2071C15.1053 17.0196 15 16.7652 15 16.5Z" fill="white"/>
</g>
</svg>
